<svg xmlns="http://www.w3.org/2000/svg" width="73.055" height="90" viewBox="0 0 73.055 90"><defs><style>.a{fill:#bebbc8;}</style></defs><g transform="translate(-48.2)"><path class="a" d="M142.468,383.467h6.023v6.023h-6.023Z" transform="translate(-77.697 -316.061)"/><path class="a" d="M339.69,29.836h16.625L335.266,8.787V25.412A4.429,4.429,0,0,0,339.69,29.836Z" transform="translate(-236.605 -7.242)"/><path class="a" d="M142.468,254.933h6.023v6.024h-6.023Z" transform="translate(-77.697 -210.121)"/><path class="a" d="M103.085,27.867a9.708,9.708,0,0,1-9.7-9.7V0H57.9a9.708,9.708,0,0,0-9.7,9.7V80.3A9.708,9.708,0,0,0,57.9,90h53.66a9.708,9.708,0,0,0,9.7-9.7V27.867ZM96.024,39.539a2.637,2.637,0,0,1,0,5.273h-11.3a2.637,2.637,0,0,1,0-5.273ZM62.134,14.121H76.255a2.637,2.637,0,1,1,0,5.273H62.134a2.637,2.637,0,0,1,0-5.273Zm0,11.3H84.728a2.637,2.637,0,0,1,0,5.273H62.134a2.637,2.637,0,0,1,0-5.273ZM76.067,76.066A2.637,2.637,0,0,1,73.431,78.7h-11.3A2.637,2.637,0,0,1,59.5,76.066v-11.3a2.637,2.637,0,0,1,2.637-2.637h11.3a2.637,2.637,0,0,1,2.637,2.637Zm0-22.594a2.637,2.637,0,0,1-2.637,2.637h-11.3A2.637,2.637,0,0,1,59.5,53.473v-11.3a2.637,2.637,0,0,1,2.637-2.637h11.3a2.637,2.637,0,0,1,2.637,2.637ZM107.321,78.7H84.728a2.637,2.637,0,1,1,0-5.273h22.594a2.637,2.637,0,1,1,0,5.273ZM82.091,64.77a2.637,2.637,0,0,1,2.637-2.637h11.3a2.637,2.637,0,1,1,0,5.273h-11.3A2.637,2.637,0,0,1,82.091,64.77Zm25.23-8.66H84.728a2.637,2.637,0,0,1,0-5.273h22.594a2.637,2.637,0,0,1,0,5.273Z" transform="translate(0 0)"/></g></svg>