<svg xmlns="http://www.w3.org/2000/svg" width="35.389" height="41.579" viewBox="0 0 35.389 41.579"><defs><style>.a{fill:#fff;}</style></defs><g transform="translate(-23.754)"><g transform="translate(23.754)"><path class="a" d="M253.28,291.164H243.5l2.465-2.465a.69.69,0,1,0-.976-.976l-3.644,3.643a.69.69,0,0,0,0,.976l3.644,3.643a.69.69,0,0,0,.976-.976l-2.465-2.465h9.785a.69.69,0,0,0,0-1.38Z" transform="translate(-221.137 -259.246)"/><path class="a" d="M100.484,19.32c2.2,0,4.357-1.338,6.062-3.767a12.938,12.938,0,0,0,2.4-7.089,8.464,8.464,0,1,0-16.928,0,12.938,12.938,0,0,0,2.4,7.089C96.127,17.982,98.279,19.32,100.484,19.32Zm0-17.94a7.092,7.092,0,0,1,7.084,7.084,11.679,11.679,0,0,1-2.152,6.3c-1.418,2.02-3.215,3.179-4.932,3.179s-3.514-1.159-4.932-3.179a11.68,11.68,0,0,1-2.152-6.3A7.092,7.092,0,0,1,100.484,1.38Z" transform="translate(-85.739)"/><path class="a" d="M209.614,387.538c-.007-.017-.006-.013,0,0a.679.679,0,0,0-.148-.219.69.69,0,1,0,.151.227C209.619,387.55,209.622,387.557,209.614,387.538Z" transform="translate(-191.31 -349.676)"/><path class="a" d="M50.172,196.441l-.2,0a14.852,14.852,0,0,0-5.141-4.058.69.69,0,0,0-.784.135,7.875,7.875,0,0,1-5.548,2.535,7.87,7.87,0,0,1-5.547-2.535.69.69,0,0,0-.784-.135A14.745,14.745,0,0,0,23.754,205.7v.012a.69.69,0,0,0,.226.511,21.569,21.569,0,0,0,14.519,5.6c.284,0,.571-.006.854-.017a.69.69,0,1,0-.054-1.379c-.264.01-.534.015-.8.015a20.191,20.191,0,0,1-13.362-5.037,13.364,13.364,0,0,1,7.2-11.568,8.618,8.618,0,0,0,12.323,0,13.477,13.477,0,0,1,3.652,2.792,8.973,8.973,0,1,0,1.859-.194Zm0,16.562a7.591,7.591,0,1,1,7.591-7.591A7.6,7.6,0,0,1,50.172,213Z" transform="translate(-23.754 -172.804)"/></g></g></svg>